<?xml version="1.0" encoding="utf-8"?>
<!-- Generator: Adobe Illustrator 24.2.3, SVG Export Plug-In . SVG Version: 6.00 Build 0)  -->
<svg version="1.1" id="Capa_1" xmlns="http://www.w3.org/2000/svg" xmlns:xlink="http://www.w3.org/1999/xlink" x="0px" y="0px"
	 viewBox="0 0 807.9 487.6" style="enable-background:new 0 0 807.9 487.6;" xml:space="preserve">
<style type="text/css">
	.st0{fill:#26416A;}
	.st1{fill:#67ACDE;}
	.st2{fill:#FAFBFB;}
	.st3{fill:#F3F5F7;}
	.st4{fill:#64AADD;}
	.st5{fill:#FDFEFE;}
</style>
<g>
	<g>
		<path class="st0" d="M64.4,265.1c-0.1,2.6,2.5,2.9,3.8,4.4c-2,2.1-3.8,4.1-5.7,6.1c-0.6,0.7-1.1,2-2.4,1.1c-1.1-0.7-1.4-1.6-1.2-3
			c1.7-10.2,4.9-19.7,11.8-27.7c14-16.2,32.4-24.2,52.8-28.4c27-5.6,54.3-9.1,81.7-11.4c2.4-0.2,4.1-1.3,5.8-2.6
			c22.9-16.8,46-33.3,69.3-49.6c15.7-11,33.1-15.8,51.9-16.9c64.5-3.8,129-2.6,193.6-1.9c31.9,0.3,60.1,9.3,85.4,28.3
			c4.7,3.5,9.5,6.8,14.3,10c19.1,12.6,39.6,22,61.8,27.7c3.1,0.8,6.3,1,9.5,1.5c3.4,0.6,6.5,1.6,8.9,4.2c4,4.6,2.7,8.4-3.3,9.8
			c-9.2,2-9.2,2-10.9,10.9c-0.2,1.1-0.8,2.2-1.4,3.2c-11,20.1-7.3,41.6,10.1,56.3c3.1,2.6,3.3,4.4,1.3,7.7
			c-5.5,8.8-12,16.4-20.4,22.6c-2.2,1.6-4.4,2.5-7.2,2.4c-5.4-0.2-10.8,0.1-16.2-0.1c-2.8-0.1-4.2,0.6-4.6,3.6
			c-0.7,4.6-2.5,9-4.5,13.2c-8.6,17.4-25.1,25.6-45.9,22.6c-20.4-3-33.6-14.3-38.9-34.3c-0.7-2.5-1.5-4-4.3-3.4s-3.3-1.2-3.9-3.4
			c-8.5-30.5-34-49.7-65.3-48.7c-13.1,0.4-25.1,4.7-35.7,12.6c-1.7,1.3-2.9,2.1-5.1,0.3c-12.6-9.6-28.4-10.4-41.3-2.4
			s-19.3,22.5-16.3,38c0.6,3.1,0.1,3.8-2.9,3.6c-3-0.2-6.6-0.8-9,0.4c-2.7,1.4-1.7,5.5-2.6,8.3c-6.2,19.3-19.7,29.6-39.3,32.5
			c-10.4,1.5-20.6,1.1-30.6-2.5c-7.5-2.7-13.6-7.2-18.3-13.6c-3-4.1-4.5-8.3-4.3-13.7c1-21.3-18.3-36.4-38.8-30.6
			c-2,0.6-3.2,0.7-4.6-1.4c-10.8-15.5-25.6-21.7-44.3-18c-1.5,0.3-2.8,0.5-3.8-1c-4.1-6.1-9.3-11.2-15.4-16.5
			c6.9,0,13.1-0.2,19.2,0.1c3,0.2,4.5-0.8,5.5-3.6c1.6-4.5,3.3-9,4.2-13.7c0.5-2.6-0.1-4.1-3-4.5c-5.8-1-11.6-1.1-17.4-1.2
			c-21.4-0.3-42.8-0.4-64.3-0.8c-2.7,0-4.6,0.7-5.4,3.2s-2.6,3.1-5,3.4c-2.4,0.3-4,0.4-3.3-2.8c0.5-2.2-1-3.1-3-3.4
			c-7.5-1.4-15-2.2-22.6-1.4c-7.1,0.8-10.5,6.3-13.9,11.6c-4.9,7.6-4.7,7.8,3.9,8.9c1.3,0.2,2.6,0.3,3.9,0.4
			c-3.3,4.9-3.9,5-11.8,2.7c-0.4,0.1-0.7,0.1-1.1,0.2C64.2,264.6,64.3,264.9,64.4,265.1z M397.7,206.1c-0.3,0.1-0.8,0.1-0.5,0.6
			c0,0.1,0.6-0.1,0.9-0.2c0.4-0.2,0.7-0.4,1.1-0.6c7.9-5,16.2-9.2,25.9-9.3c6.1-0.1,11.3,1.8,13.9,7.8c1,2.2,2.5,1.9,4.3,1.9
			c9.4-0.4,18.9-0.8,28.3-1.1c3-0.1,3.5-0.7,2-3.4c-7.5-13.1-15-26.2-22.3-39.5c-1.3-2.4-2.3-2.3-4.2-0.9
			c-17.6,13-33.8,27.5-48.6,43.6C398.3,205.5,398,205.8,397.7,206.1z M340.1,212.1c7.1,0,14.3,0,18,0c-3.7,0.6-10.8-2.3-18.1-0.7
			c-4.8,0-9.6-0.1-14.4-0.1c-37.6-0.3-75.2-1.1-112.7-0.6c-19.6,0.2-39.2,3.2-58.7,5.7c-18,2.3-35.4,6.5-52.2,13.4
			c-1.9,0.8-3.8,1.8-5.7,2.7c11.5,1,22.8,1,34.2,0.9c1.3,0,2.6-0.4,3.8-0.8c28.9-9.8,58.7-14.7,89-16.7c34-2.3,68.1-3.2,102.2-3.7
			C330.3,212.2,335.2,212.2,340.1,212.1z M607.7,208.5c2.5-0.3,5-0.6,7.5-0.9c-2.6-0.3-5.3-1.2-7.7,0.3c-26.2,1.2-52.3,2.5-78.5,3.7
			c-0.9,0-2.2-0.3-2.5,1.1c-0.2,1.1,0.4,2,1.1,2.7c2.7,2.7,6,3.1,9.7,2.6C560.7,214.9,584.2,211.7,607.7,208.5z M576.7,160.4
			c-0.3-0.4-0.6-0.5-1-0.1c0.2,0.2,0.4,0.3,0.6,0.5c4.3,9.4,9.8,18,14.7,27.1c2.1,3.8,3.4,8.8,6.7,11c3.4,2.4,8.7,0.2,13.1,0.3
			c4.7,0,4.9-0.3,2.6-4.6C605,179,592.2,168.2,576.7,160.4z M446,147.1c-0.8-0.4-1.1-0.6-1.3-0.6c-32.3-0.7-64.6-1-96.9,0
			c-3.1,0.1-2.9,1.2-2,3.4c7.2,17.8,14.3,35.6,21.4,53.3c0.4,1,0.6,2.6,1.9,2.6c3.9-0.1,7.8,1.1,11.5-2.3
			C401.6,184.1,422.3,164.2,446,147.1z M224.4,206c9.7,0,19.4,0,29.1,0c16.9,0,33.8,0,50.6,0c2.3,0,3.6,0,2.5-3
			c-5.5-13.9-10.8-27.9-16.1-41.9c-0.8-2.2-1.7-2.2-3.4-1.2C264.7,173,244.3,188.9,224.4,206z M569,201.1c-0.1-2-1.1-3.1-1.9-4.3
			c-6.9-11.8-13.9-23.6-20.8-35.3c-8.2-14-8.3-13.8-24.6-14.7c-4-0.2-4.5,1.1-4.1,4.6c1.7,14,3.1,28.1,4.8,42.1
			c0.4,3.1-0.7,7.2,1.6,9.2c2.3,1.9,6.1,0.2,9.3,0.1C545.2,202.3,557.1,201.7,569,201.1z M244.3,265.8c0-0.2,0-0.4,0-0.6
			c4.8,0,9.6,0.3,14.4-0.1c12.7-0.9,13.3-1.6,15.7-14c0.1-0.3,0.1-0.6,0.1-0.9c0.8-5.1-0.3-6.8-5.4-8.1c-1.4-0.4-2.8-0.7-4.3-0.9
			c-12.9-1.5-25.8-2.2-38.7-1.8c-6.9,0.2-8.1,1.1-10.4,7.6c-0.5,1.5-0.9,3.1-1.2,4.6c-1.3,7.5,2.5,12.6,10.1,13.2
			C231.2,265.4,237.8,265.5,244.3,265.8z M364.1,206c0.3-1.8-0.6-3-1.2-4.3c-5.8-13.7-11.3-27.4-17.4-40.9
			c-2.2-4.8-1.9-12.1-7.5-13.6c-5-1.4-10.9,0.7-16.4,1.1c-2.4,0.2-3,0.9-2.1,3.2c6.8,17.3,13.6,34.6,20.2,52
			c0.7,1.8,1.5,2.5,3.5,2.5C350.2,205.9,357.1,206,364.1,206z M498.1,146.5c-6.9,0.1-13.6,1.2-20.4,2.4c-3.2,0.6-3.3,1.6-1.8,4.2
			c8.9,15.8,17.9,31.7,26.5,47.7c2.3,4.3,5.7,3,8.6,2.5c3.3-0.5,1.4-3.6,1.2-5.4c-1.2-14.2-2.6-28.4-4.1-42.6
			C506.9,144.8,509,146.3,498.1,146.5z M500.1,203.5c-0.8-1.5-1.5-2.7-2.2-4c-7.8-13.4-15.6-26.9-23.4-40.3c-5.3-9.2-5.3-9.1-15-4.6
			c-2,0.9-2.6,1.7-1.3,3.8c8.4,14.6,16.6,29.3,24.9,44c0.7,1.2,1.3,2.2,2.9,2.1C490.7,204.2,495.3,204.5,500.1,203.5z M322.1,206
			c1.3,0,1.9,0,2.5,0c5.2,0,5.2,0,3.3-5c-5.3-13.8-10.5-27.6-15.8-41.4c-3.5-9.2-3.5-9.1-12.8-5.4c-2.7,1.1-3.1,2.1-2,4.7
			c5.7,13.6,11.3,27.3,16.6,41.1C315.5,204.5,317.5,207.5,322.1,206z M593.5,200.1c-0.4-1.1-0.5-1.7-0.8-2.1
			c-7.7-13.2-15.3-26.4-23-39.6c-0.5-0.9-0.9-1.8-2-2.2c-5.7-2.2-11.4-4.1-17.5-5.1c0,1.9,1.1,2.9,1.8,4.1
			c7,11.9,14.4,23.6,20.8,35.8c3.8,7.3,8.1,11.4,16.6,9.2C590.5,199.9,591.7,200.1,593.5,200.1z M658.9,291
			c-0.1-5-0.3-10.1-1.3-15.1c-2.7-13.7-8.3-25.5-21.6-32c-26.7-12.9-58.1-0.2-68.2,27.6c-2.9,8-3.6,19.7-1.5,25
			c0.4-2.5,0.7-5.3,1.3-8c4.2-19.3,13.3-34.7,33.1-41.6c17.5-6.1,40-2.6,50.3,20.6c2.4,5.5,4.4,11,5.9,16.8
			C657.4,286.6,657.2,289.2,658.9,291z M285.3,301.7c1.9-11.6,4.8-22.9,12-32.4c11-14.3,25.7-20.6,43.6-18.4
			c16.1,1.9,25.3,12.4,31,26.7c2.4,6,4,12.3,5.7,18.5c0.5-11.7-1.6-22.9-7.9-33c-4.8-7.8-11.6-13-20.4-15.4
			c-9.2-2.6-18.6-3.2-28.1-1.2C296.7,251.5,280.3,278.2,285.3,301.7z M591.9,291.2c2.6-2.8,5.1-5.8,7.9-8.4
			c12-10.8,29.7-5.1,32.6,10.8c2.1,11.9-1.9,22.1-11.4,29.9c-1.6,1.3-3.3,2.5-5.7,4.4c7.2-1.2,12.4-4,16-9.2
			c6.8-9.7,8.3-20.4,4.1-31.5c-4.4-11.5-16.6-17.6-28-14.5C598.2,275.2,594.4,282.6,591.9,291.2z M310.5,298.4
			c2.9-3.3,5.1-6.7,8.2-9.3c5.6-4.8,11.9-7.6,19.3-4.8c7.6,2.9,12.8,8.2,13.7,16.6c1.2,10.6-1.9,19.9-9.8,27.2
			c-2.1,2-4.5,3.6-7.3,5.8c6.2-0.8,10.8-3.4,14.6-7.5c8.2-9,9.9-25.5,3.9-36c-5.1-8.9-15.3-13.9-24.7-12
			C319.2,280.1,312,288.1,310.5,298.4z M440.5,214.7c2.1,1,3.9,0.6,5.6,0.6c17.8,0.4,35.5,0.3,53.2,2c8.2,0.8,12.7,4.8,14.8,12.4
			c2.3,8.3,3.4,16.9,3.8,25.9c3.1-7.6,1.1-33.7-2.8-40.1c-1.6-2.6-3.9-3.2-6.7-3.2c-21-0.3-41.9,0.6-62.9,1.5
			C444,213.8,442.3,213.4,440.5,214.7z M352.7,220.2c-25.7,4.3-51.8,6.7-77,16.8c2.3,1.2,3.8,2,4.5,3.5s0.9,3.2,1.4,4.9
			C303.5,231.7,328.7,227.7,352.7,220.2z M384.9,250.9c7.1,1.1,7.7,6.3,8.1,12.4c0.9-3.3,1.5-5.8,2.3-8.2c1-2.9,4.3-2.7,7.8-5
			c-8.9,0.4-8.3-6-10.2-11.3C392.5,244.9,391.7,249.8,384.9,250.9z M277.9,261.4c-3.1,6.8-8.1,8.5-13.9,9
			c-5.9,0.5-11.8,1.1-18.9,1.8c7.8,1,14.5,1.5,21.1,1.3C274.6,273.3,276.7,271.3,277.9,261.4z M437.1,209.6
			c-1.7-11.4-13.8-12.9-28.5-3.6C419.2,203.6,429,198.6,437.1,209.6z M544.3,260.5c-3.1,7-3.1,7-8.2,8.6c6.2,0.2,6.8,4.5,8.1,8.4
			c0.1-4.6,2-7.7,6.7-8.8C545.7,268.4,544.7,264.8,544.3,260.5z M697.5,212.4c-5.3-0.2-10.5-0.6-13.4,4c-2.8,4.5-1.2,9.3,0.8,15.1
			C685.6,216.6,685.7,216.5,697.5,212.4z M559.1,255.2c1.4-2,1.4-4.6,4.3-4.9c-2.8-0.8-3.1-3.2-4.4-5.5c0.2,3.1-1.5,4.5-4,5.7
			C558.1,250.7,558.9,252.5,559.1,255.2z"/>
		<path class="st1" d="M739.8,198.4c3.6-8.1,5.1-16.3,1.8-24.9c-4.1-10.7-14.1-17.8-25.4-18.3c-3.6-0.2-5.1,0.9-4.6,4.6
			c0.2,1.5,0.4,3.1-0.7,5.2c-4.9-26.6-19.5-44.5-45.7-50.4c-26.5-6-47.2,4.3-62.9,26c0-3,0.1-3.3,2.6-7.9c2.8-5,6.1-9.7,10.3-13.4
			c2.2-1.9,2.2-3.1,0.4-5.3c-15.5-18.8-46.4-16.2-58.4,5.1c-1.5,2.6-2.6,5.5-3.9,8.2c-3.9-17.9,13-34.6,37.2-35.8
			c-15-31-38.4-51.5-71.4-60C478.4,21.1,433,37,409.4,69.6c22.3-0.8,38.3,8.6,47.7,28.7c-11.9-15.6-27.4-24.1-47.2-22.1
			c-20,2.1-33.5,13.6-41.5,32.2c-0.3-3.4-0.1-4.7,1.7-9.2c4.9-11.6,12.9-20.4,24.5-25.5c5.3-2.4,6.2-7.7,9.2-11.7
			c0.9-1.3-0.8-2.3-1.8-3.1c-26.5-23.4-69.5-9.1-76.8,25.5c-0.3,1.3-0.3,2.6-1.4,3.7c-0.1-20.7,11.4-38.1,30.1-45.7
			c18.6-7.5,38-2.6,54,13.9c23-27.9,52.4-42.7,88.8-41.5c36.3,1.2,64.7,18,85.9,47.6c6.7-8.6,15.4-13.7,26.1-14.4
			c13.9-0.9,25,4.9,32.5,16.6c1.8,2.8,3.5,3.5,6.6,3.4c25.3-0.8,45.7,14.9,51.1,39.3c0.8,3.5,1.6,7.3,1,10.8
			c-0.8,5,0.7,8.8,3.4,12.9c3.4,5.1,5.7,10.8,6.7,16.9c0.4,2.2,1.3,2.6,3.5,2.2c18-3.5,32.3,6.4,35.4,24.2
			C750.3,181.6,746.5,195.1,739.8,198.4L739.8,198.4z M618.3,81.3c-0.1-0.1-0.2-0.3-0.3-0.4c5.3-6.1,12.7-8.7,20.1-11.4
			c-11.7-14.9-37.1-16.8-50.7-4.1c-1.7,1.6-1.4,2.8-0.4,4.5c3.7,6.3,6.6,13,8.6,20c0.7,2.4,1.9,3.8,4.3,4.8
			c8.1,3.5,14.1,9.3,17.3,17.5c1.4,3.6,2.6,3,5.1,1.3c17.4-11.6,35.8-13.4,55.2-5.4c5.7,2.3,10.4,6.1,15.8,10c0-1.3,0.1-2,0-2.7
			c-2.7-22.8-23.2-41.4-46-42.1C636.8,73,627.3,76.1,618.3,81.3z"/>
		<path class="st1" d="M380.2,131.2c-5.9-5.6-12-11-19.8-13.8c-20.1-7.3-41.4-0.7-53.8,16.8c-0.6,0.8-1.2,1.6-1.7,2.3
			c-2-6.4-6.9-10.4-11.9-14c-22.8-16.7-55.1-8.7-67.9,16.5c-1.3,2.6-1.5,4,1.7,5.5c11.1,5.2,18,14,20.1,26.3
			c0.1,0.7,0.2,1.4,0.3,2.2c0.1,1.1-0.2,2.2-1.4,2.3s-1.1-1.1-1.4-1.9c-2.5-6.4-5.9-12-11.4-16.2c-11.5-8.9-24.2-10.7-37.3-4.6
			c-13.2,6.2-20.2,17.1-20.4,32c0,2,0,4,0,6.9c-3.8-7.7-4.2-15.2-2.6-22.6c2.8-13,10.8-21.7,23.3-26c3.1-1.1,3.4-2.1,2-4.9
			c-10.6-21.7-35.8-35.3-59.6-32.2c-25.6,3.4-46.5,22.7-51,47.2c-0.3,1.6-1.3,3.8,0.4,4.9c1.9,1.3,4.5,1.4,6.8,1.1
			c1.6-0.2,1.2-1.7,1.4-2.8c4.1-22.3,20.7-38.6,43.2-42.3c2-0.3,4.1-0.2,6.8-0.3c-24.5,5-40.4,18.6-47.8,42c-1,3.2-0.4,4.6,2.9,5.7
			c9,2.9,17,7.4,23.2,14.9c-0.2,0.2-0.3,0.3-0.5,0.5c-10.3-6.4-21.3-10.7-33.6-10.6c-26.9,0.1-50.6,20-55.3,46.4
			c-0.7,4-0.4,7,3.7,9.5c4.8,3,7.4,7.8,8.9,14.4c-11.8-14.7-23.2-17.5-33.9-9c-6,4.8-8.4,11.4-7.5,19c0.8,7.4,5.5,12.5,12.5,17
			C9,262.5,0.5,252.1,0,242.7c-0.8-13.7,8.5-24.6,22.2-25.9c2.7-0.2,3-1.3,3.1-3.5c0.6-24.5,18.8-48.5,45.7-53.5
			c7.6-1.4,9.8-4,11.2-11.5c6-32.5,34-54.1,66.8-51.1c25.2,2.3,42.9,15.9,52.9,39.3c1.3,3.1,2.6,4.7,6.2,4.3
			c3.1-0.4,6.4-0.3,9.5,0.6c2.4,0.7,3.8,0.3,4.7-2.7c5.6-18.4,18-30.1,37-32.7c19.6-2.7,35,5.1,45.6,22c0.2,0.4,0.5,0.7,0.8,1
			c0.1,0.1,0.3,0.1,0.7,0.2c3.3-5.5,7-10.7,12.2-14.9c19.6-15.6,50.4-8.5,61,14.2c0.4,0.8,0.5,1.7,0.7,2.5L380.2,131.2z"/>
		<path class="st1" d="M276,347.6c2.4-9.1,2.4-17.9-3.9-25.6c-6.5-7.9-14.9-10.6-24.9-9c-3.1,0.5-2.6,2.6-2.3,4.6
			c2.1,12.7-1.9,23.5-10.4,32.8c-0.8,0.9-1.5,1.8-2.8,2l-0.2-0.2c3.1-5.7,6.5-11.3,7.4-18c2-16.1-3.7-28.9-17.2-37.4
			s-27.6-7.9-41.1,0.9c-1.3,0.8-2.2,2.4-4.5,2c2.8-3.7,6-6.6,9.8-8.8c2.2-1.3,2.5-2.3,0.6-4.3c-14.7-14.7-32.2-23.5-53.1-24.3
			C99,261,73.6,276,57.4,306.1c-7.9,14.6-10.1,30.5-7.7,47c0.1,0.9,0.2,1.7,0.2,2.6c0,0.4-0.1,0.9-0.3,2.4c-3.3-7.8-4.4-15-4.9-22.3
			c-1-16,2.5-31,10.6-44.8c2.3-3.9,1.3-5.4-2.3-7.2c-18.7-9.7-39.8,2-42.4,23.7c-0.1,1-0.2,2-0.3,3.5c-4.6-12.9,0.2-27.1,11.5-34.5
			c11.3-7.5,26.4-6.5,36.3,2.7c2.4,2.2,3.3,2.3,5.6-0.2c18-20.7,40.9-30.6,68.2-28.6c24.6,1.8,44.3,13.3,59,33.2
			c1.9,2.6,3.4,3.4,6.7,2.5c16.2-4.4,33.3,2.8,42.4,17.8c1.5,2.4,2.5,2.9,5.3,2c11-3.6,21.1-1.9,29.3,6.7c8,8.4,9.8,18.2,6,29.1
			c-0.9,2.4-1.9,4.9-4.1,6.6C276.3,347.9,276.1,347.7,276,347.6z"/>
		<path class="st1" d="M554.5,333c-5.2-18-15.5-31.9-32.2-40.5c-12.7-6.5-26.2-8.5-40.3-5.3c-30,6.9-49.4,32.5-48.1,63.2
			c-2.6-6.9-3.3-14.2-2.6-21.5c1.3-13.3,5.9-25.1,14.8-35.2c1.9-2.2,1.5-3.1-0.9-4.5c-21-12-48,3.4-48.4,27.5c0,1.9,0,3.8,0,5.7
			c-5.1-8.1-3.3-23,3.9-32.2c12.1-15.4,32.7-17.6,48-5.1c2.3,1.9,3.5,2.1,6,0.1c18.7-14.3,39.5-17.6,61.3-8.7
			c21.6,8.8,34.1,25.6,38.1,48.6c0.3,1.6,0.2,3.2,0.3,4.8C554.5,331,554.5,332,554.5,333z"/>
		<path class="st1" d="M807.7,277.7c-11.9-21.1-27.3-29.1-45.5-23.7c-10.1,3-17.7,9.2-22.6,18.6c-4.9,9.4-5.1,19.2-2.6,29.3
			c-5.9-9.8-6.9-20.3-3-30.9c5.3-14.4,15.7-23.2,31.1-25.4c4-0.6,2.7-2.4,1.6-4.3c-7.5-13.4-18.8-20.8-34.2-21.4
			c-16-0.6-28.1,6.4-36.3,20c-6.2,10.3-6.9,21.4-3.4,33.3c-3.5-3.6-6.1-12.5-6.1-19.6c0.1-20.4,14.5-37.6,34.6-41.4
			c20.3-3.8,40.4,7.6,47,27.4c1.4,4.2,3.3,5.5,7.3,6c15.2,1.7,28.1,13.2,31.9,27.8C807.9,274.7,808.2,275.9,807.7,277.7z"/>
		<path class="st1" d="M214.6,63.7c11.8,0.1,21.5,10.1,21.3,22c-0.1,11.6-10.4,21.7-21.9,21.6c-12.1-0.1-21.7-10-21.6-22.1
			C192.4,73,202.2,63.5,214.6,63.7z M213.9,104.2c9.8,0.1,17.6-7.5,17.7-17.2c0.1-9.7-7.6-17.4-17.4-17.5
			c-9.9-0.1-17.6,7.4-17.6,17.2C196.6,96.5,204.1,104.2,213.9,104.2z"/>
		<path class="st1" d="M125.9,330.1c17-0.3,21.5-11.4,22.3-25.9c1.7,2.3,1.8,4.7,2.2,7c2.2,12.7,4.1,14.8,16.7,17.8
			c1.4,0.3,2.8,0.6,4.8,1.4c-18.9,0.1-22,12.9-23.6,27.5c-0.5-3-1-6-1.4-9c-1.9-12.2-4.8-15.2-16.8-17.7
			C128.6,330.9,127.3,330.5,125.9,330.1z"/>
		<path class="st1" d="M501.9,106.3c-0.1-9.3,7.2-16.8,16.4-16.9c8.9-0.1,16.7,7.7,16.7,16.7c0,8.9-7.5,16.5-16.3,16.7
			C509.7,123,502,115.5,501.9,106.3z M530.9,107.3c0-7-5.4-12.6-12.2-12.8c-6.7-0.2-13.1,5.9-13.1,12.7c0,6.9,5.5,12.6,12.4,12.7
			C525.4,119.9,530.9,114.5,530.9,107.3z"/>
		<path class="st1" d="M710,113.1c5.3-2.5,12.2-1.6,15.1-7.8c2.5-5.3,2.5-11.3,3.8-17.3c0.9,6.1,1.2,12,3.7,17.4
			c2.9,6.2,9.8,5.4,15.4,7.9c-1.5,0.2-2.6,0.3-3.6,0.4c-7.8,1.3-13.2,4.9-13.9,13.6c-0.3,3.3-1,6.6-1.6,10.1
			C725.1,117.4,727.2,116.5,710,113.1z"/>
		<path class="st1" d="M608.2,18.5c-14,4.3-15.5,1.2-18.3,24.5c-1.7-5.9-1.5-11.8-4-16.9c-3-6-9.3-5.7-14.8-7.5
			c3.6-1.1,7-2.1,10.4-3.3c4.3-1.6,5.2-5.6,6.1-9.5c0.8-3.7,1.3-7.4,2.3-11.1c0.4,4.1,1.4,8.1,2.1,12.1c1.1,5.6,4.2,8.7,9.7,9.8
			C603.7,17.2,605.7,17.9,608.2,18.5z"/>
		<path class="st0" d="M118.4,247.1c0.3-2.2,1.1-3.3,3.4-3.2c25.4,1.3,50.9-0.3,76.3,1.7c2.2,0.2,5.9-0.4,5.8,2.2
			c-0.2,2.8-3.8,1.2-5.8,1.1C171.7,248.4,145.2,247.7,118.4,247.1z"/>
		<path class="st1" d="M767,183.4c7.8,0.1,13.9,6.4,13.9,14.4c-0.1,8-6.6,14.5-14.5,14.4c-7.8-0.1-14.5-7.1-14.2-14.8
			C752.4,189.4,758.8,183.3,767,183.4z M777.5,198.8c0.1-6-4.6-10.9-10.6-11c-6.1-0.2-11.4,4.8-11.4,10.8c0,6.1,5,11.1,11.1,11.1
			C772.5,209.7,777.4,204.8,777.5,198.8z"/>
		<path class="st1" d="M109.6,277.4c-27.1,20.4-27.1,20.4-42.6,57.9C64.1,312.4,89.8,277.5,109.6,277.4z"/>
		<path class="st1" d="M293.4,59c2,15.6,3,17,14.7,19.2c-4.2,2.3-9.7,1.4-11.8,6.4c-1.8,4.1-2.3,8.6-2.8,14.4
			c-2.1-9.8-1.3-20.3-15-20.1c4.4-2.1,9.4-1.9,11.6-6.4C292.1,68.4,291.9,63.7,293.4,59z"/>
		<path class="st0" d="M152.6,250.9c16.2,0,32.3,0,48.5,0c1.1,0,3-0.6,2.6,1.6c-0.3,1.5,0.1,3.8-2.6,3.7c-12.7-0.3-25.3-0.2-38-1
			c-3.6-0.2-7-2.5-10.5-3.9C152.6,251.3,152.6,251.1,152.6,250.9z"/>
		<path class="st1" d="M479.8,320c12.2-0.6,12.9-9.4,13.7-19.4c0.8,4.1,1.4,7,1.8,9.8c0.7,5,3.7,7.7,8.5,8.6
			c1.4,0.3,2.7,0.8,4.3,1.5c-12.4-0.2-13.1,9-14.3,19C491.2,323.3,490.9,322.8,479.8,320z"/>
		<path class="st1" d="M436.8,64.1c7.9-15,36.2-28.7,48.3-23.7C467.3,44.7,451.2,52.6,436.8,64.1z"/>
		<path class="st1" d="M76.5,178.4c-16.2,8.2-25,20.8-27.7,38.6C44.1,199,58.6,178.8,76.5,178.4z"/>
		<path class="st1" d="M108.1,190.4c6.3,0,11.2,4.8,11.2,10.9c0,5.8-5,10.8-10.9,10.9c-6,0.1-11.2-5-11.2-11.1
			C97.2,195.4,102.2,190.4,108.1,190.4z M117.1,202.1c0.1-4.6-4.1-8.9-8.9-8.9c-4.6,0-8.5,3.9-8.6,8.6c-0.1,4.7,3.6,8.6,8.3,8.9
			C112.6,210.8,117,206.8,117.1,202.1z"/>
		<path class="st1" d="M204.5,158.7c-11.7,7.4-15.2,19.1-18.5,31.4C181.9,175.4,191.2,159.4,204.5,158.7z"/>
		<path class="st0" d="M169.2,258.4c9.9,0,19.8,0,29.7,0.1c0.9,0,3-1.2,2.7,1.4c-0.2,1.5-1,2.5-2.9,2.4c-7.9-0.2-15.7-0.2-23.6-0.2
			C172.3,262.1,170.9,260,169.2,258.4z"/>
		<path class="st1" d="M395.6,98.9c1.1,5.7,1.9,11.5,10.7,12.1c-7.2,2.1-7.2,2.1-10.8,12.6c-0.5-6.3-1.5-11.8-9.5-12.2
			C393.9,110.5,395.2,105.2,395.6,98.9z"/>
		<path class="st1" d="M135.9,188.7c8.6-3.1,8.6-3.1,10.7-13.7c0.7,6.7,1.4,12.6,9.5,13.4c-8.3,0.5-8.8,6.5-9.7,12.4
			C145.4,195,145.1,188.8,135.9,188.7z"/>
		<path class="st1" d="M359.6,58.5c-8.6,7.4-16.1,14.4-22.8,23.1C337.3,71,347,61,359.6,58.5z"/>
		<path class="st1" d="M654.3,166c8-0.7,8-6.7,8.9-12.8c1.3,5.8,0.7,12.2,9.2,12.7c-7.9,1-8.2,6.7-9,13.2
			C662.1,172.9,662.3,166.8,654.3,166z"/>
		<path class="st1" d="M757.4,266.1c-6.8,7-10.8,15.2-11.6,25c-2.8-3.1-3.4-7.8-1.5-13.2C746.4,271.5,750.7,267.4,757.4,266.1z"/>
		<path class="st1" d="M587.6,109.7c-9.2,3.5-15.8,8.8-20.2,17.9c-1.4-5.4,0.4-8.9,2.9-12C574.5,110.3,579.8,107.9,587.6,109.7z"/>
		<path class="st1" d="M275.4,348.7c-0.1,0.4-0.2,0.8-0.2,1.2c-0.1-0.1-0.2-0.1-0.4-0.2C275,349.4,275.2,349.1,275.4,348.7
			C275.4,348.8,275.4,348.7,275.4,348.7z"/>
		<path class="st1" d="M458.1,100.3c-0.1,0.1-0.3,0.3-0.4,0.4c-0.1-0.2-0.2-0.5-0.2-0.7c0-0.1,0.2-0.2,0.3-0.3
			C457.8,99.9,458,100.1,458.1,100.3z"/>
		<polygon class="st1" points="111.8,276.7 111.5,276.6 111.9,276.5 		"/>
		<path class="st1" d="M380.4,131c0.5,0.3,0.9,0.9,0.4,1.1c-0.6,0.3-0.5-0.5-0.7-0.9C380.2,131.2,380.4,131,380.4,131z"/>
		<path class="st1" d="M231.8,352.3c-0.2,0.2-0.5,0.6-0.5,0.6c-0.6-0.5-0.1-0.6,0.3-0.8C231.5,352.1,231.8,352.3,231.8,352.3z"/>
		<path class="st1" d="M739.7,198.3c-0.1,0.2-0.2,0.3-0.3,0.5c0-0.1,0-0.2,0-0.3C739.5,198.5,739.7,198.4,739.7,198.3
			C739.8,198.4,739.7,198.3,739.7,198.3z"/>
		<path class="st1" d="M126.7,179.2c0.1,0,0.2,0.1,0.4,0.1C127,179.2,126.9,179.2,126.7,179.2C126.8,179.1,126.7,179.2,126.7,179.2z
			"/>
		<path class="st1" d="M126.8,179.1c-0.3-0.3-0.6-0.6-0.9-0.9l-0.1,0.1C126.4,178.3,126.7,178.6,126.8,179.1
			C126.7,179.2,126.8,179.1,126.8,179.1z"/>
		<path class="st1" d="M125.9,178.2c-0.3-0.3-0.6-0.5-0.9-0.8l0.2-0.1C125.7,177.4,126,177.7,125.9,178.2
			C125.8,178.3,125.9,178.2,125.9,178.2z"/>
		<path class="st1" d="M124.5,176.1c0.2,0.4,0.4,0.7,0.7,1.1l-0.2,0.1c-0.3-0.2-0.7-0.5-1-0.7C124.1,176.5,124.3,176.3,124.5,176.1z
			"/>
		<path class="st1" d="M601.2,142.2c-0.1-0.1-0.2-0.2-0.2-0.3s0.1-0.2,0.2-0.3c0.1,0.1,0.2,0.2,0.2,0.3S601.2,142.1,601.2,142.2z"/>
		<path class="st1" d="M276.4,348c-0.2,0.5-0.5,0.8-1.1,0.7l0.1,0.1c0.2-0.4,0.4-0.8,0.5-1.2C276.1,347.7,276.3,347.9,276.4,348z"/>
		<path class="st2" d="M446,147.1c-23.7,17.1-44.4,37-65.4,56.4c-3.6,3.4-7.6,2.1-11.5,2.3c-1.3,0-1.5-1.6-1.9-2.6
			c-7.1-17.8-14.2-35.6-21.4-53.3c-0.9-2.2-1.1-3.3,2-3.4c32.3-1,64.6-0.7,96.9,0C444.9,146.6,445.2,146.8,446,147.1z"/>
		<path class="st2" d="M224.4,206c19.9-17.1,40.3-33,62.7-46c1.7-1,2.6-1.1,3.4,1.2c5.2,14,10.6,27.9,16.1,41.9c1.2,3-0.2,3-2.5,3
			c-16.9-0.1-33.8,0-50.6,0C243.8,206,234.1,206,224.4,206z"/>
		<path class="st2" d="M569,201.1c-11.9,0.6-23.8,1.2-35.7,1.6c-3.2,0.1-7,1.9-9.3-0.1s-1.2-6.1-1.6-9.2c-1.7-14-3.1-28.1-4.8-42.1
			c-0.4-3.5,0.1-4.8,4.1-4.6c16.4,0.9,16.4,0.7,24.6,14.7c7,11.8,13.9,23.5,20.8,35.3C567.9,198.1,569,199.1,569,201.1z"/>
		<path class="st2" d="M398.5,205.2c14.8-16.1,31-30.6,48.6-43.6c1.9-1.4,2.9-1.5,4.2,0.9c7.3,13.2,14.7,26.4,22.3,39.5
			c1.5,2.7,1,3.3-2,3.4c-9.5,0.2-18.9,0.7-28.3,1.1c-1.7,0.1-3.3,0.3-4.3-1.9c-2.7-6-7.9-7.8-13.9-7.8c-9.7,0.1-18,4.2-25.9,9.3
			C399,205.7,398.7,205.4,398.5,205.2z"/>
		<path class="st2" d="M244.3,265.8c-6.5-0.3-13.1-0.5-19.6-1c-7.6-0.6-11.4-5.6-10.1-13.2c0.3-1.6,0.7-3.1,1.2-4.6
			c2.2-6.5,3.4-7.4,10.4-7.6c13-0.4,25.9,0.3,38.7,1.8c1.4,0.2,2.9,0.5,4.3,0.9c5.1,1.4,6.2,3,5.4,8.1c0,0.3-0.1,0.6-0.1,0.9
			c-2.5,12.5-3,13.1-15.7,14c-4.8,0.3-9.6,0.1-14.4,0.1C244.3,265.4,244.3,265.6,244.3,265.8z"/>
		<path class="st2" d="M325.4,212.2c-34.1,0.6-68.2,1.5-102.2,3.7c-30.3,2-60.1,6.9-89,16.7c-1.2,0.4-2.5,0.8-3.8,0.8
			c-11.3,0.1-22.6,0-34.2-0.9c1.9-0.9,3.7-1.9,5.7-2.7c16.8-6.9,34.2-11.1,52.2-13.4c19.5-2.5,39-5.5,58.7-5.7
			c37.6-0.4,75.2,0.4,112.7,0.6C325.5,211.7,325.5,212,325.4,212.2z"/>
		<path class="st2" d="M364.1,206c-7,0-13.9-0.1-20.9,0c-1.9,0-2.8-0.7-3.5-2.5c-6.7-17.4-13.4-34.7-20.2-52
			c-0.9-2.4-0.3-3.1,2.1-3.2c5.5-0.4,11.4-2.4,16.4-1.1c5.6,1.5,5.4,8.8,7.5,13.6c6.1,13.5,11.7,27.2,17.4,40.9
			C363.5,203,364.5,204.2,364.1,206z"/>
		<path class="st2" d="M498.1,146.5c11-0.2,8.8-1.7,10,8.8c1.5,14.2,2.9,28.4,4.1,42.6c0.2,1.8,2,4.9-1.2,5.4
			c-2.9,0.4-6.3,1.8-8.6-2.5c-8.6-16-17.5-31.9-26.5-47.7c-1.5-2.6-1.3-3.6,1.8-4.2C484.4,147.7,491.2,146.6,498.1,146.5z"/>
		<path class="st2" d="M500.1,203.5c-4.8,1-9.5,0.7-14.1,1c-1.7,0.1-2.3-0.9-2.9-2.1c-8.3-14.7-16.5-29.4-24.9-44
			c-1.2-2.1-0.6-2.9,1.3-3.8c9.7-4.5,9.7-4.6,15,4.6c7.8,13.4,15.6,26.9,23.4,40.3C498.7,200.8,499.4,202,500.1,203.5z"/>
		<path class="st2" d="M322.1,206c-4.6,1.5-6.5-1.5-8.3-6c-5.3-13.8-10.9-27.5-16.6-41.1c-1.1-2.7-0.7-3.7,2-4.7
			c9.4-3.7,9.3-3.8,12.8,5.4c5.3,13.8,10.5,27.6,15.8,41.4c1.9,5,1.9,5-3.3,5C324,206,323.4,206,322.1,206z"/>
		<path class="st2" d="M593.5,200.1c-1.8,0-3-0.2-4.1,0c-8.5,2.2-12.8-1.9-16.6-9.2c-6.4-12.2-13.8-23.9-20.8-35.8
			c-0.7-1.2-1.8-2.3-1.8-4.1c6.1,1,11.8,3,17.5,5.1c1.1,0.4,1.5,1.3,2,2.2c7.7,13.2,15.4,26.4,23,39.6
			C593,198.4,593.1,199,593.5,200.1z"/>
		<path class="st3" d="M658.9,291c-1.7-1.7-1.4-4.4-2-6.7c-1.5-5.8-3.5-11.4-5.9-16.8c-10.3-23.2-32.8-26.7-50.3-20.6
			c-19.8,6.9-28.9,22.3-33.1,41.6c-0.6,2.7-0.9,5.4-1.3,8c-2.1-5.3-1.4-16.9,1.5-25c10.2-27.8,41.5-40.6,68.2-27.6
			c13.3,6.4,18.9,18.3,21.6,32C658.6,280.9,658.7,285.9,658.9,291z"/>
		<path class="st3" d="M285.3,301.7c-5-23.5,11.5-50.2,36-55.2c9.4-1.9,18.8-1.4,28.1,1.2c8.8,2.5,15.6,7.6,20.4,15.4
			c6.2,10.1,8.3,21.2,7.9,33c-1.7-6.2-3.3-12.5-5.7-18.5c-5.7-14.3-14.9-24.8-31-26.7c-17.9-2.2-32.7,4.1-43.6,18.4
			C290,278.8,287.1,290.1,285.3,301.7z"/>
		<path class="st2" d="M576.7,160.4c15.5,7.8,28.3,18.6,36.6,34.2c2.3,4.3,2.1,4.6-2.6,4.6c-4.4,0-9.7,2.1-13.1-0.3
			c-3.2-2.2-4.6-7.2-6.7-11c-4.9-9-10.4-17.7-14.7-27.1C576.4,160.6,576.5,160.5,576.7,160.4z"/>
		<path class="st3" d="M591.9,291.2c2.5-8.7,6.3-16.1,15.4-18.6c11.4-3.1,23.6,3.1,28,14.5c4.3,11.1,2.7,21.8-4.1,31.5
			c-3.6,5.1-8.7,7.9-16,9.2c2.4-1.9,4.1-3.1,5.7-4.4c9.5-7.8,13.5-17.9,11.4-29.9c-2.9-15.9-20.5-21.6-32.6-10.8
			C596.9,285.4,594.5,288.4,591.9,291.2z"/>
		<path class="st3" d="M310.5,298.4c1.4-10.3,8.7-18.3,17.8-20.1c9.4-1.8,19.6,3.1,24.7,12c6.1,10.6,4.3,27-3.9,36
			c-3.7,4.1-8.3,6.7-14.6,7.5c2.8-2.2,5.2-3.8,7.3-5.8c7.9-7.4,11-16.6,9.8-27.2c-0.9-8.4-6.2-13.7-13.7-16.6
			c-7.4-2.9-13.6-0.1-19.3,4.8C315.7,291.7,313.5,295.1,310.5,298.4z"/>
		<path class="st3" d="M440.5,214.7c1.8-1.3,3.5-0.9,5-1c21-0.8,41.9-1.8,62.9-1.5c2.8,0,5.1,0.6,6.7,3.2c3.9,6.4,5.9,32.5,2.8,40.1
			c-0.4-9-1.4-17.6-3.8-25.9c-2.1-7.6-6.5-11.5-14.8-12.4c-17.7-1.7-35.5-1.6-53.2-2C444.4,215.3,442.7,215.8,440.5,214.7z"/>
		<path class="st3" d="M352.7,220.2c-24,7.5-49.2,11.5-71.1,25.1c-0.5-1.7-0.7-3.4-1.4-4.9c-0.6-1.5-2.1-2.3-4.5-3.5
			C300.9,226.9,327.1,224.5,352.7,220.2z"/>
		<path class="st3" d="M607.7,208.5c-23.5,3.2-47,6.3-70.5,9.6c-3.7,0.5-7,0-9.7-2.6c-0.7-0.7-1.4-1.6-1.1-2.7
			c0.3-1.4,1.6-1,2.5-1.1c26.2-1.3,52.3-2.5,78.5-3.7C607.4,208.2,607.5,208.4,607.7,208.5z"/>
		<path class="st3" d="M384.9,250.9c6.9-1.1,7.6-6,8-12.1c2,5.3,1.3,11.7,10.2,11.3c-3.6,2.2-6.9,2-7.8,5c-0.8,2.4-1.4,4.9-2.3,8.2
			C392.5,257.2,391.9,252,384.9,250.9z"/>
		<path class="st3" d="M277.9,261.4c-1.2,9.9-3.3,11.9-11.6,12.1c-6.7,0.2-13.3-0.3-21.1-1.3c7.1-0.7,13-1.3,18.9-1.8
			C269.8,270,274.9,268.3,277.9,261.4z"/>
		<path class="st3" d="M437.1,209.6c-8.1-11-17.9-5.9-28.5-3.6C423.3,196.6,435.4,198.2,437.1,209.6z"/>
		<path class="st3" d="M544.3,260.5c0.4,4.3,1.4,7.8,6.6,8.2c-4.7,1.1-6.6,4.1-6.7,8.8c-1.3-3.8-1.9-8.1-8.1-8.4
			C541.2,267.5,541.2,267.5,544.3,260.5z"/>
		<path class="st3" d="M697.5,212.4c-11.8,4.1-11.9,4.2-12.6,19c-2-5.7-3.7-10.6-0.8-15.1C687,211.8,692.2,212.2,697.5,212.4z"/>
		<path class="st3" d="M559.1,255.2c-0.2-2.6-1-4.5-4.1-4.7c2.6-1.2,4.2-2.6,4-5.7c1.3,2.3,1.5,4.7,4.4,5.5
			C560.5,250.6,560.4,253.2,559.1,255.2z"/>
		<path class="st4" d="M340,211.4c7.2-1.6,14.3,1.3,18.1,0.7c-3.7,0-10.8,0-18,0C340.1,211.9,340.1,211.7,340,211.4z"/>
		<path class="st1" d="M340,211.4c0.1,0.2,0.1,0.5,0.1,0.7c-4.9,0-9.8,0.1-14.7,0.1c0.1-0.3,0.1-0.6,0.2-0.9
			C330.4,211.4,335.2,211.4,340,211.4z"/>
		<path class="st4" d="M607.7,208.5c-0.3-0.1-0.4-0.3-0.3-0.6c2.5-1.5,5.1-0.6,7.7-0.3C612.7,207.9,610.2,208.2,607.7,208.5z"/>
		<path class="st5" d="M64.4,265.1c-0.1-0.2-0.2-0.5-0.3-0.7c0.4-0.1,0.7-0.1,1.1-0.2C64.9,264.5,64.6,264.8,64.4,265.1z"/>
		<path class="st2" d="M398.1,206.5c-0.3,0.1-0.9,0.3-0.9,0.2c-0.2-0.5,0.2-0.6,0.5-0.6C397.9,206.3,398,206.4,398.1,206.5z"/>
		<path class="st2" d="M397.7,206.1c0.3-0.3,0.5-0.6,0.8-1c0.2,0.3,0.4,0.5,0.6,0.8c-0.4,0.2-0.7,0.4-1.1,0.6
			C398,206.4,397.9,206.3,397.7,206.1z"/>
		<path class="st2" d="M576.2,160.8c-0.2-0.2-0.4-0.3-0.6-0.5c0.4-0.4,0.7-0.3,1,0.1C576.5,160.5,576.4,160.6,576.2,160.8z"/>
		<path class="st1" d="M616.5,82.1c0.2-0.8,0.8-1,1.5-1.2c0.1,0.1,0.2,0.3,0.3,0.4C617.9,82,617.3,82.3,616.5,82.1L616.5,82.1z"/>
		<path class="st1" d="M616.4,82c-0.1,0.2-0.1,0.4-0.2,0.7C615.5,82.1,616.3,82.2,616.4,82C616.5,82.1,616.4,82,616.4,82z"/>
	</g>
	<g>
		<path class="st4" d="M439.6,476.5c-0.1,0.2-0.2,0.4-0.4,0.6C438.8,476.6,439.2,476.5,439.6,476.5L439.6,476.5z"/>
		<path class="st4" d="M440.6,475.8c-0.3,0.2-0.6,0.5-1,0.7l0,0c0.2-0.4,0.3-0.8,0.5-1.2C440.3,475.5,440.4,475.6,440.6,475.8z"/>
		<path class="st0" d="M111.2,390.3l15.3,100.3H99.2l-1.4-18h-9.5l-1.6,18H59.1l13.6-100.3H111.2z M97.1,454.8
			c-1.4-11.4-2.7-25.4-4.1-42.1c-2.7,19.2-4.4,33.2-5.1,42.1H97.1z"/>
		<path class="st0" d="M195.7,390.3v67c0,7.6-0.3,12.9-0.8,16s-2,6.2-4.5,9.5c-2.5,3.2-5.8,5.7-9.9,7.4c-4.1,1.7-8.9,2.5-14.4,2.5
			c-6.1,0-11.5-1-16.2-3s-8.2-4.6-10.5-7.7c-2.3-3.2-3.7-6.5-4.1-10.1c-0.4-3.5-0.6-11-0.6-22.3v-59.3h26.7v75.2
			c0,4.4,0.2,7.2,0.7,8.4c0.5,1.2,1.5,1.8,2.9,1.8c1.7,0,2.8-0.7,3.3-2s0.7-4.5,0.7-9.5v-73.9H195.7z"/>
		<path class="st0" d="M263.8,390.3v20.1H248v80.2h-26.7v-80.2h-15.8v-20.1L263.8,390.3L263.8,390.3z"/>
		<path class="st0" d="M334.9,449.1c0,10.1-0.2,17.2-0.7,21.4c-0.5,4.2-2,8-4.6,11.5s-6,6.1-10.4,8s-9.4,2.8-15.2,2.8
			c-5.5,0-10.4-0.9-14.8-2.6c-4.4-1.8-7.9-4.4-10.6-7.9s-4.2-7.3-4.8-11.5c-0.5-4.1-0.8-11.4-0.8-21.7v-17.2
			c0-10.1,0.2-17.2,0.7-21.4c0.5-4.2,2-8,4.6-11.5s6-6.1,10.4-8s9.4-2.8,15.2-2.8c5.5,0,10.4,0.9,14.8,2.6c4.4,1.8,7.9,4.4,10.6,7.9
			s4.2,7.3,4.8,11.5c0.5,4.1,0.8,11.4,0.8,21.7V449.1z M308.2,416.1c0-4.7-0.3-7.7-0.8-9s-1.6-2-3.3-2c-1.4,0-2.5,0.5-3.2,1.6
			s-1.1,4.2-1.1,9.3v46.8c0,5.8,0.2,9.4,0.7,10.8s1.6,2,3.4,2s3-0.8,3.5-2.4s0.8-5.3,0.8-11.2V416.1z"/>
		<path class="st4" d="M375.6,390.3v80.2h16.2v20.1h-42.9V390.3H375.6z"/>
		<path class="st4" d="M429,390.3v100.3h-26.7V390.3H429z"/>
		<path class="st4" d="M526.1,390.3v100.3h-23.3v-67.7l-9.3,67.7H477l-9.8-66.2v66.2h-23.3V390.3h34.5c1,6,2.1,13.1,3.2,21.3
			l3.8,25.5l6.1-46.8H526.1z"/>
		<path class="st4" d="M540.8,390.3h26.9c7.3,0,12.9,0.6,16.8,1.7c3.9,1.1,6.8,2.7,8.8,4.8s3.3,4.7,4,7.7s1,7.6,1,13.9v8.7
			c0,6.4-0.7,11.1-2,14c-1.4,2.9-3.8,5.2-7.4,6.8c-3.6,1.6-8.3,2.4-14.2,2.4h-7.2v40.4h-26.7L540.8,390.3L540.8,390.3z M567.5,407.5
			V433c0.8,0,1.4,0.1,2,0.1c2.5,0,4.2-0.6,5.1-1.8c1-1.2,1.4-3.6,1.4-7.3v-8.2c0-3.4-0.5-5.7-1.6-6.7
			C573.2,408,570.9,407.5,567.5,407.5z"/>
		<path class="st4" d="M636.7,390.3v100.3H610V390.3H636.7z"/>
		<path class="st4" d="M712.4,449.1c0,10.1-0.2,17.2-0.7,21.4c-0.5,4.2-2,8-4.6,11.5s-6,6.1-10.4,8s-9.4,2.8-15.2,2.8
			c-5.5,0-10.4-0.9-14.8-2.6c-4.4-1.8-7.9-4.4-10.6-7.9c-2.7-3.5-4.2-7.3-4.8-11.5c-0.5-4.1-0.8-11.4-0.8-21.7v-17.2
			c0-10.1,0.2-17.2,0.7-21.4c0.5-4.2,2-8,4.6-11.5s6-6.1,10.4-8s9.4-2.8,15.2-2.8c5.5,0,10.4,0.9,14.8,2.6c4.4,1.8,7.9,4.4,10.6,7.9
			c2.7,3.5,4.2,7.3,4.8,11.5c0.5,4.1,0.8,11.4,0.8,21.7V449.1z M685.7,416.1c0-4.7-0.3-7.7-0.8-9s-1.6-2-3.3-2
			c-1.4,0-2.5,0.5-3.2,1.6s-1.1,4.2-1.1,9.3v46.8c0,5.8,0.2,9.4,0.7,10.8s1.6,2,3.4,2c1.8,0,3-0.8,3.5-2.4s0.8-5.3,0.8-11.2
			L685.7,416.1L685.7,416.1z"/>
	</g>
</g>
</svg>
